<svg id="Grupo_13300" data-name="Grupo 13300" xmlns="http://www.w3.org/2000/svg" width="249.584" height="48.031" viewBox="0 0 249.584 48.031">
  <path id="Trazado_29911" data-name="Trazado 29911" d="M49.764,22.071c1.493-.543,2.986-.95,4.479-1.493A14.473,14.473,0,0,0,44.2,12.028c5.836-.543,11.265.95,15.472,5.836a1.092,1.092,0,0,0,1.493.407c.95-.407,2.036-.679,3.257-1.086-1.493,3.393-2.986,6.65-4.479,9.907-3.529-1.764-6.786-3.393-10.179-5.022" transform="translate(15.787 4.258)" fill="#fff" fill-rule="evenodd"/>
  <path id="Trazado_29912" data-name="Trazado 29912" d="M52.9,33.836c1.357-3.257,2.714-6.379,4.207-9.636,3.122,1.629,6.243,3.257,9.365,5.022-1.357.543-2.579.95-3.936,1.493a14.545,14.545,0,0,0,9.5,8.55,16.218,16.218,0,0,1-13.572-4.479,7.113,7.113,0,0,1-1.357-1.493c-.271-.407-.543-.407-.95-.271a21.1,21.1,0,0,1-3.121,1.086.42.42,0,0,1-.136-.271" transform="translate(18.895 8.644)" fill="#fff" fill-rule="evenodd"/>
  <path id="Trazado_29913" data-name="Trazado 29913" d="M39.494,4.936a19.664,19.664,0,0,0-4.75.95,8.27,8.27,0,0,0-3.257,2.443C27.415,12.943,23.479,17.693,19,21.765a.474.474,0,0,0-.136.271c1.086,1.221,2.171,2.307,3.257,3.529,3.664,4.614,7.464,9.093,11.129,13.708a12.65,12.65,0,0,0,6.107,4.479,14.648,14.648,0,0,0,2.579.407V46.33h-11.4a1.234,1.234,0,0,1-1.086-.543A158.765,158.765,0,0,0,13.165,25.294a1.145,1.145,0,0,0-.95-.271V39.951c0,2.171.679,3.122,2.85,3.664.95.271,1.9.407,2.986.679V46.33H0V44.294c.95-.136,1.9-.136,2.85-.271a2.938,2.938,0,0,0,2.714-2.85V8.464A2.508,2.508,0,0,0,4.072,6.157C2.714,5.75,1.357,5.343,0,4.8V2.9H17.915V4.936c-1.086.271-2.307.407-3.393.679A2.637,2.637,0,0,0,12.215,8.6V23.665c0,.271.679.136.814,0A77.906,77.906,0,0,0,26.193,10.093a9.523,9.523,0,0,0,1.357-2.579,1.55,1.55,0,0,0-.814-2.036,13.064,13.064,0,0,0-3.393-.543V2.9h16.15V4.936Z" transform="translate(0 1.036)" fill="#fff"/>
  <path id="Trazado_29914" data-name="Trazado 29914" d="M119.158,41.016c.543,0,1.086-.136,1.629-.136,1.9-.136,2.714-1.086,2.714-2.85V21.88a5.089,5.089,0,0,0-.136-1.493c-.814-3.936-3.664-5.564-7.464-4.343a8.543,8.543,0,0,0-4.886,3.8,3.2,3.2,0,0,0-.271,1.086V37.216c0,2.307.814,3.257,3.122,3.664a4.184,4.184,0,0,0,1.357.136v1.9H100.7v-1.9c.407,0,.814-.136,1.357-.136,2.171-.271,2.986-1.086,2.986-3.257V22.83a8.791,8.791,0,0,0-.271-2.714c-.679-3.393-3.393-5.022-6.786-4.207a8.667,8.667,0,0,0-5.564,4.207,1.722,1.722,0,0,0-.136.814V37.623c0,1.9,1.086,2.986,3.257,3.393.407.136.814.136,1.221.271v1.9H82.107v-1.9c.679-.136,1.493-.136,2.171-.271a2.326,2.326,0,0,0,2.171-2.579V19.3a3.506,3.506,0,0,0-2.443-3.257A11.493,11.493,0,0,0,81.7,15.5V13.6c1.221-.136,2.579-.136,3.8-.271l5.7-.407c.814,0,1.086.136,1.086,1.086V17.4a.42.42,0,0,0,.136.271c.407-.407.814-.679,1.221-1.086a12.2,12.2,0,0,1,5.7-3.664c4.207-1.221,8.143,0,10.45,3.257.407.543.679,1.086,1.086,1.629.543-.543,1.221-1.086,1.764-1.629a12.029,12.029,0,0,1,8.55-3.664c4.207,0,7.057,2.307,7.872,6.379a28.921,28.921,0,0,1,.407,3.393V37.216c0,2.85.679,3.664,3.529,4.072.407,0,.679.136,1.086.136v2.036H120.244c-.679,0-.95-.136-.814-.814a5.242,5.242,0,0,1-.271-1.629" transform="translate(29.181 4.45)" fill="#fff"/>
  <path id="Trazado_29915" data-name="Trazado 29915" d="M139.159,28.637c3.121,4.343,6.922,9.093,10.179,13.708,1.357,1.9,2.986,3.122,5.564,2.986v2.036h-8.414a1.187,1.187,0,0,1-1.221-.679c-3.121-4.479-6.379-8.957-9.636-13.436-.271-.271-.543-.679-.814-.95-.814.814-1.629,1.493-2.307,2.171a1.017,1.017,0,0,0-.136.679v6.514c0,1.9.543,2.579,2.307,3.122a11.493,11.493,0,0,0,2.307.543v1.9H122.329v-1.9c.679-.136,1.493-.136,2.171-.271,1.493-.271,2.036-1.086,2.171-2.579V7.329a5.447,5.447,0,0,0-.407-2.036,3.465,3.465,0,0,0-3.257-2.579c-.543,0-1.086-.136-1.764-.136-.407,0-.543-.136-.543-.543,0-1.764-.136-1.357,1.357-1.493,2.986-.136,6.107-.407,9.093-.543.95,0,1.086.136,1.086,1.086v31.08c.136,0,.271,0,.271-.136,3.122-3.257,6.379-6.379,9.5-9.636,1.493-1.493,1.086-2.307-.814-2.85-.271,0-.407-.136-.679-.136-1.629-.407-1.629-.407-1.357-2.171h13.3v1.493a.612.612,0,0,1-.407.407,18.675,18.675,0,0,0-9.093,5.564c-.543.679-3.393,3.393-3.8,3.936" transform="translate(43.11 0)" fill="#fff"/>
  <path id="Trazado_29916" data-name="Trazado 29916" d="M192.731,41.092v1.9H177.938v-1.9a16.967,16.967,0,0,0,2.579-.407,2.37,2.37,0,0,0,2.036-2.443V21.413a6.772,6.772,0,0,0-.679-2.85c-1.086-2.443-3.393-3.393-6.243-2.714a8.244,8.244,0,0,0-5.7,3.936,1.929,1.929,0,0,0-.271.814V37.7a2.886,2.886,0,0,0,2.036,2.85c.814.271,1.629.407,2.579.679v1.9H159.616v-1.9c.407,0,.95-.136,1.357-.136,2.171-.136,2.986-1.086,2.986-3.257V19.92a6.087,6.087,0,0,0-.679-2.579,3.87,3.87,0,0,0-3.393-1.9c-.543,0-.814-.271-.679-.814V13.406c1.221-.136,2.443-.136,3.664-.271,1.9-.136,3.936-.271,5.836-.407.814,0,.95.136.95.95v3.8c.814-.814,1.493-1.357,2.171-2.036a11.307,11.307,0,0,1,10.179-2.986c3.393.543,5.157,2.85,5.971,5.836a18.421,18.421,0,0,1,.407,3.936v15.2c0,2.579.814,3.122,2.986,3.664a2.3,2.3,0,0,1,1.357,0" transform="translate(56.853 4.374)" fill="#fff"/>
  <path id="Trazado_29917" data-name="Trazado 29917" d="M146.4,14.979v-1.9c1.357-.136,2.85-.271,4.207-.271l5.7-.407c1.086,0,1.221.136,1.221,1.086V36.694c0,2.579.679,3.257,3.257,3.936a2.646,2.646,0,0,0,1.086.136v1.9H147.486v-1.9c.814-.136,1.493-.136,2.307-.271,1.357-.271,1.9-.95,2.036-2.443V19.322c0-2.443-1.086-3.664-3.393-4.207a5.174,5.174,0,0,1-2.036-.136" transform="translate(52.29 4.429)" fill="#fff"/>
  <path id="Trazado_29918" data-name="Trazado 29918" d="M48.76,12.343c-1.086.407-2.171.679-3.122,1.086C40.21,15.872,36.817,20.079,36,25.915c-.679,4.75,1.086,8.822,4.343,12.215A20.476,20.476,0,0,0,49.3,43.694H45.1a15.931,15.931,0,0,1-1.9-31.622,20.247,20.247,0,0,1,2.85-.271,23.966,23.966,0,0,1,2.714.543h0" transform="translate(10.685 4.215)" fill="#fff"/>
  <path id="Trazado_29919" data-name="Trazado 29919" d="M67.907,43.353c8.414-1.9,13.165-8.957,13.029-15.743A16.053,16.053,0,0,0,67.5,12.274a16.266,16.266,0,0,1,16.965,7.193,15.983,15.983,0,0,1-.679,17.915,16.142,16.142,0,0,1-15.879,5.972" transform="translate(24.109 4.284)" fill="#fff"/>
  <path id="Trazado_29920" data-name="Trazado 29920" d="M149.3,4.872a3.871,3.871,0,1,1,7.736-.136,4.236,4.236,0,0,1-4.072,4.343A4.045,4.045,0,0,1,149.3,4.872" transform="translate(53.324 0.286)" fill="#fff"/>
</svg>
